<svg xmlns="http://www.w3.org/2000/svg" xmlns:xlink="http://www.w3.org/1999/xlink" width="110.062" height="102.47" viewBox="0 0 110.062 102.47">
  <defs>
    <filter id="Path_12" x="0" y="10" width="100.062" height="92.47" filterUnits="userSpaceOnUse">
      <feOffset dy="3" input="SourceAlpha"/>
      <feGaussianBlur stdDeviation="2" result="blur"/>
      <feFlood flood-opacity="0.161"/>
      <feComposite operator="in" in2="blur"/>
      <feComposite in="SourceGraphic"/>
    </filter>
    <filter id="Path_13" x="0" y="63.141" width="65.141" height="18.073" filterUnits="userSpaceOnUse">
      <feOffset dy="3" input="SourceAlpha"/>
      <feGaussianBlur stdDeviation="2" result="blur-2"/>
      <feFlood flood-opacity="0.161"/>
      <feComposite operator="in" in2="blur-2"/>
      <feComposite in="SourceGraphic"/>
    </filter>
    <filter id="Path_14" x="0" y="73.769" width="65.141" height="18.073" filterUnits="userSpaceOnUse">
      <feOffset dy="3" input="SourceAlpha"/>
      <feGaussianBlur stdDeviation="2" result="blur-3"/>
      <feFlood flood-opacity="0.161"/>
      <feComposite operator="in" in2="blur-3"/>
      <feComposite in="SourceGraphic"/>
    </filter>
    <filter id="Path_12-2" x="10" y="0" width="100.062" height="92.47" filterUnits="userSpaceOnUse">
      <feOffset dy="3" input="SourceAlpha"/>
      <feGaussianBlur stdDeviation="2" result="blur-4"/>
      <feFlood flood-opacity="0.161"/>
      <feComposite operator="in" in2="blur-4"/>
      <feComposite in="SourceGraphic"/>
    </filter>
    <filter id="Path_13-2" x="10" y="53.141" width="65.141" height="18.073" filterUnits="userSpaceOnUse">
      <feOffset dy="3" input="SourceAlpha"/>
      <feGaussianBlur stdDeviation="2" result="blur-5"/>
      <feFlood flood-opacity="0.161"/>
      <feComposite operator="in" in2="blur-5"/>
      <feComposite in="SourceGraphic"/>
    </filter>
    <filter id="Path_14-2" x="10" y="63.769" width="65.141" height="18.073" filterUnits="userSpaceOnUse">
      <feOffset dy="3" input="SourceAlpha"/>
      <feGaussianBlur stdDeviation="2" result="blur-6"/>
      <feFlood flood-opacity="0.161"/>
      <feComposite operator="in" in2="blur-6"/>
      <feComposite in="SourceGraphic"/>
    </filter>
  </defs>
  <g id="fastfood" transform="translate(6 13)">
    <g transform="matrix(1, 0, 0, 1, -6, -13)" filter="url(#Path_12)">
      <path id="Path_12-3" data-name="Path 12" d="M86.921,18.933H65.25V3.75H59.177V18.933H34.884v6.073h3.4l1.168,9.11H18.183A15.2,15.2,0,0,0,3,49.3v3.037H56.141V49.3a15.188,15.188,0,0,0-10.468-14.43l-1.264-9.863H80.019L73.206,78.147H3V84.22H78.551l7.592-59.214h4.919V18.933ZM49.547,46.262H9.594a9.126,9.126,0,0,1,8.589-6.073H40.958A9.126,9.126,0,0,1,49.547,46.262Z" transform="translate(3 9.25)" fill="#3e3d41"/>
    </g>
    <g transform="matrix(1, 0, 0, 1, -6, -13)" filter="url(#Path_13)">
      <path id="Path_13-3" data-name="Path 13" d="M54.622,36.073h1.518V30H3v6.073Z" transform="translate(3 36.14)" fill="#3e3d41"/>
    </g>
    <g transform="matrix(1, 0, 0, 1, -6, -13)" filter="url(#Path_14)">
      <path id="Path_14-3" data-name="Path 14" d="M54.622,41.323h1.518V35.25H3v6.073Z" transform="translate(3 41.52)" fill="#3e3d41"/>
    </g>
  </g>
  <g id="fastfood-2" data-name="fastfood" transform="translate(16 3)">
    <g transform="matrix(1, 0, 0, 1, -16, -3)" filter="url(#Path_12-2)">
      <path id="Path_12-4" data-name="Path 12" d="M86.921,18.933H65.25V3.75H59.177V18.933H34.884v6.073h3.4l1.168,9.11H18.183A15.2,15.2,0,0,0,3,49.3v3.037H56.141V49.3a15.188,15.188,0,0,0-10.468-14.43l-1.264-9.863H80.019L73.206,78.147H3V84.22H78.551l7.592-59.214h4.919V18.933ZM49.547,46.262H9.594a9.126,9.126,0,0,1,8.589-6.073H40.958A9.126,9.126,0,0,1,49.547,46.262Z" transform="translate(13 -0.75)" fill="#ddd2b9"/>
    </g>
    <g transform="matrix(1, 0, 0, 1, -16, -3)" filter="url(#Path_13-2)">
      <path id="Path_13-4" data-name="Path 13" d="M54.622,36.073h1.518V30H3v6.073Z" transform="translate(13 26.14)" fill="#ddd2b9"/>
    </g>
    <g transform="matrix(1, 0, 0, 1, -16, -3)" filter="url(#Path_14-2)">
      <path id="Path_14-4" data-name="Path 14" d="M54.622,41.323h1.518V35.25H3v6.073Z" transform="translate(13 31.52)" fill="#ddd2b9"/>
    </g>
  </g>
</svg>
