<svg xmlns="http://www.w3.org/2000/svg" xmlns:xlink="http://www.w3.org/1999/xlink" width="667.991" height="91.596" viewBox="0 0 667.991 91.596">
  <defs>
    <filter id="Path_1" x="270.553" y="10" width="387.438" height="81.453" filterUnits="userSpaceOnUse">
      <feOffset dy="5" input="SourceAlpha"/>
      <feGaussianBlur stdDeviation="2" result="blur"/>
      <feFlood flood-opacity="0.161"/>
      <feComposite operator="in" in2="blur"/>
      <feComposite in="SourceGraphic"/>
    </filter>
    <filter id="Path_2" x="0" y="10.222" width="272.768" height="80.946" filterUnits="userSpaceOnUse">
      <feOffset dy="5" input="SourceAlpha"/>
      <feGaussianBlur stdDeviation="2" result="blur-2"/>
      <feFlood flood-opacity="0.161"/>
      <feComposite operator="in" in2="blur-2"/>
      <feComposite in="SourceGraphic"/>
    </filter>
    <filter id="Path_3" x="532.923" y="10.221" width="81.369" height="81.375" filterUnits="userSpaceOnUse">
      <feOffset dy="5" input="SourceAlpha"/>
      <feGaussianBlur stdDeviation="2" result="blur-3"/>
      <feFlood flood-opacity="0.161"/>
      <feComposite operator="in" in2="blur-3"/>
      <feComposite in="SourceGraphic"/>
    </filter>
    <filter id="Rectangle_8" x="567.402" y="22.866" width="41.846" height="35.479" filterUnits="userSpaceOnUse">
      <feOffset dy="5" input="SourceAlpha"/>
      <feGaussianBlur stdDeviation="2" result="blur-4"/>
      <feFlood flood-opacity="0.161"/>
      <feComposite operator="in" in2="blur-4"/>
      <feComposite in="SourceGraphic"/>
    </filter>
    <filter id="Path_1-2" x="280.553" y="0" width="387.438" height="81.453" filterUnits="userSpaceOnUse">
      <feOffset dy="5" input="SourceAlpha"/>
      <feGaussianBlur stdDeviation="2" result="blur-5"/>
      <feFlood flood-opacity="0.161"/>
      <feComposite operator="in" in2="blur-5"/>
      <feComposite in="SourceGraphic"/>
    </filter>
    <filter id="Path_2-2" x="10" y="0.222" width="272.768" height="80.946" filterUnits="userSpaceOnUse">
      <feOffset dy="5" input="SourceAlpha"/>
      <feGaussianBlur stdDeviation="2" result="blur-6"/>
      <feFlood flood-opacity="0.161"/>
      <feComposite operator="in" in2="blur-6"/>
      <feComposite in="SourceGraphic"/>
    </filter>
    <filter id="Path_3-2" x="542.923" y="0.221" width="81.369" height="81.375" filterUnits="userSpaceOnUse">
      <feOffset dy="5" input="SourceAlpha"/>
      <feGaussianBlur stdDeviation="2" result="blur-7"/>
      <feFlood flood-opacity="0.161"/>
      <feComposite operator="in" in2="blur-7"/>
      <feComposite in="SourceGraphic"/>
    </filter>
    <filter id="Rectangle_8-2" x="577.402" y="12.866" width="41.846" height="35.479" filterUnits="userSpaceOnUse">
      <feOffset dy="5" input="SourceAlpha"/>
      <feGaussianBlur stdDeviation="2" result="blur-8"/>
      <feFlood flood-opacity="0.161"/>
      <feComposite operator="in" in2="blur-8"/>
      <feComposite in="SourceGraphic"/>
    </filter>
  </defs>
  <g id="Group_3" data-name="Group 3" transform="translate(16 1)">
    <g id="Group_26" data-name="Group 26" transform="translate(-10 10)">
      <g transform="matrix(1, 0, 0, 1, -6, -11)" filter="url(#Path_1)">
        <path id="Path_1-3" data-name="Path 1" d="M475.385,84.455H513.01V77.982H481.992V52h25.136V45.525H481.992V24.8h31.289V18.328h-37.9Zm-117.541,0h37.628V77.982H364.453V52H388.41V45.525H364.453V24.8H395.74V18.328h-37.9Zm-38.888,0h32.052V78.072H325.566V18.328h-6.609Zm-38.844,0h32.052V78.072H286.722V18.328h-6.609ZM252.462,26.919a27.425,27.425,0,0,1,10.333,10.189,28.012,28.012,0,0,1,3.67,14.24,28.714,28.714,0,0,1-3.67,14.4,26.74,26.74,0,0,1-10.221,10.214,28.3,28.3,0,0,1-14.252,3.734,26.939,26.939,0,0,1-19.7-8.12,26.992,26.992,0,0,1-8.171-19.908,28.643,28.643,0,0,1,3.692-14.442,28.238,28.238,0,0,1,24.178-14.128,27.975,27.975,0,0,1,14.14,3.826M220.8,21.272A33.557,33.557,0,0,0,208.23,34.018a35.239,35.239,0,0,0-4.611,17.666A33.1,33.1,0,0,0,213.74,76.049a33.847,33.847,0,0,0,24.831,10.07A33.481,33.481,0,0,0,263.2,76a33.547,33.547,0,0,0,10.1-24.634,33.374,33.374,0,0,0-10.121-24.68q-10.122-10.024-25.143-10.024a33.817,33.817,0,0,0-17.23,4.606m-30.543-.943a37.444,37.444,0,0,0-16.723-3.663q-15.328,0-25.511,9.911a32.756,32.756,0,0,0-10.182,24.431q0,13.8,8.405,23.556,10.027,11.555,27.378,11.554a38.742,38.742,0,0,0,16.521-3.439,33.326,33.326,0,0,0,12.339-9.734l-5.213-3.955q-9.351,10.879-23.242,10.879-12.634,0-20.927-8.093a27.051,27.051,0,0,1-8.293-20.184,28.22,28.22,0,0,1,3.709-14.408,27.253,27.253,0,0,1,10.452-10.2,29.35,29.35,0,0,1,14.654-3.8,30.326,30.326,0,0,1,13.284,2.9,28.523,28.523,0,0,1,10.362,8.52l5.213-4a32.443,32.443,0,0,0-12.227-10.272" transform="translate(138.71 -5.67)" fill="#3e3d41"/>
      </g>
      <g transform="matrix(1, 0, 0, 1, -6, -11)" filter="url(#Path_2)">
        <path id="Path_2-3" data-name="Path 2" d="M223.181,84.287h22.1V60.58h20.21V84.287h22.1V18.173h-22.1V41.5h-20.21V18.173h-22.1Zm-23.942,0a34.144,34.144,0,0,0,8.688-3.826,29.78,29.78,0,0,0,6.66-5.666,42.153,42.153,0,0,0,4.911-6.941l-18.229-10.3a20.856,20.856,0,0,1-4.911,6,11.571,11.571,0,0,1-7.557,2.315,11.439,11.439,0,0,1-5.006-1.087,11.8,11.8,0,0,1-3.919-3.022,13.744,13.744,0,0,1-2.552-4.628,18.611,18.611,0,0,1-.9-5.9v-.19a17.266,17.266,0,0,1,.9-5.574,14.934,14.934,0,0,1,2.5-4.628,11.677,11.677,0,0,1,3.872-3.117,11.258,11.258,0,0,1,5.1-1.133,11.41,11.41,0,0,1,7.321,2.22,18.055,18.055,0,0,1,4.674,5.81l18.229-10.674A36.178,36.178,0,0,0,214.066,27a29.828,29.828,0,0,0-6.609-5.432,32.959,32.959,0,0,0-8.313-3.541,37.411,37.411,0,0,0-10.058-1.275,36.456,36.456,0,0,0-13.791,2.6A34.451,34.451,0,0,0,164.1,26.578a33.193,33.193,0,0,0-7.462,10.957,34.635,34.635,0,0,0-2.693,13.7v.188A34.281,34.281,0,0,0,156.737,65.4a33.238,33.238,0,0,0,18.417,17.851A35.158,35.158,0,0,0,188.236,85.7a39.322,39.322,0,0,0,11-1.416m-105.073,0h56.859V66.153H115.888v-7.18h29.62V43.014h-29.62V36.307h34.664V18.173H94.166Zm-47.885,0h22.1V36.875H87.837v-18.7H26.826v18.7H46.281Z" transform="translate(-20.83 -5.54)" fill="#3e3d41"/>
      </g>
      <g id="Group_2" data-name="Group 2" transform="translate(532.923 0.221)">
        <g transform="matrix(1, 0, 0, 1, -538.92, -11.22)" filter="url(#Path_3)">
          <path id="Path_3-3" data-name="Path 3" d="M298.319,21.868a34.689,34.689,0,1,0,15.907,22.886l-5.99,1.172a28.585,28.585,0,1,1-13.109-18.863Z" transform="translate(293.42 -5.54)" fill="#3e3d41"/>
        </g>
        <g transform="matrix(1, 0, 0, 1, -538.92, -11.22)" filter="url(#Rectangle_8)">
          <rect id="Rectangle_8-3" data-name="Rectangle 8" width="32.094" height="6.196" transform="matrix(0.82, -0.57, 0.57, 0.82, 573.4, 42.27)" fill="#3e3d41"/>
        </g>
      </g>
    </g>
    <g transform="matrix(1, 0, 0, 1, -16, -1)" filter="url(#Path_1-2)">
      <path id="Path_1-4" data-name="Path 1" d="M475.385,84.455H513.01V77.982H481.992V52h25.136V45.525H481.992V24.8h31.289V18.328h-37.9Zm-117.541,0h37.628V77.982H364.453V52H388.41V45.525H364.453V24.8H395.74V18.328h-37.9Zm-38.888,0h32.052V78.072H325.566V18.328h-6.609Zm-38.844,0h32.052V78.072H286.722V18.328h-6.609ZM252.462,26.919a27.425,27.425,0,0,1,10.333,10.189,28.012,28.012,0,0,1,3.67,14.24,28.714,28.714,0,0,1-3.67,14.4,26.74,26.74,0,0,1-10.221,10.214,28.3,28.3,0,0,1-14.252,3.734,26.939,26.939,0,0,1-19.7-8.12,26.992,26.992,0,0,1-8.171-19.908,28.643,28.643,0,0,1,3.692-14.442,28.238,28.238,0,0,1,24.178-14.128,27.975,27.975,0,0,1,14.14,3.826M220.8,21.272A33.557,33.557,0,0,0,208.23,34.018a35.239,35.239,0,0,0-4.611,17.666A33.1,33.1,0,0,0,213.74,76.049a33.847,33.847,0,0,0,24.831,10.07A33.481,33.481,0,0,0,263.2,76a33.547,33.547,0,0,0,10.1-24.634,33.374,33.374,0,0,0-10.121-24.68q-10.122-10.024-25.143-10.024a33.817,33.817,0,0,0-17.23,4.606m-30.543-.943a37.444,37.444,0,0,0-16.723-3.663q-15.328,0-25.511,9.911a32.756,32.756,0,0,0-10.182,24.431q0,13.8,8.405,23.556,10.027,11.555,27.378,11.554a38.742,38.742,0,0,0,16.521-3.439,33.326,33.326,0,0,0,12.339-9.734l-5.213-3.955q-9.351,10.879-23.242,10.879-12.634,0-20.927-8.093a27.051,27.051,0,0,1-8.293-20.184,28.22,28.22,0,0,1,3.709-14.408,27.253,27.253,0,0,1,10.452-10.2,29.35,29.35,0,0,1,14.654-3.8,30.326,30.326,0,0,1,13.284,2.9,28.523,28.523,0,0,1,10.362,8.52l5.213-4a32.443,32.443,0,0,0-12.227-10.272" transform="translate(148.71 -15.67)" fill="#ddd2b9"/>
    </g>
    <g transform="matrix(1, 0, 0, 1, -16, -1)" filter="url(#Path_2-2)">
      <path id="Path_2-4" data-name="Path 2" d="M223.181,84.287h22.1V60.58h20.21V84.287h22.1V18.173h-22.1V41.5h-20.21V18.173h-22.1Zm-23.942,0a34.144,34.144,0,0,0,8.688-3.826,29.78,29.78,0,0,0,6.66-5.666,42.153,42.153,0,0,0,4.911-6.941l-18.229-10.3a20.856,20.856,0,0,1-4.911,6,11.571,11.571,0,0,1-7.557,2.315,11.439,11.439,0,0,1-5.006-1.087,11.8,11.8,0,0,1-3.919-3.022,13.744,13.744,0,0,1-2.552-4.628,18.611,18.611,0,0,1-.9-5.9v-.19a17.266,17.266,0,0,1,.9-5.574,14.934,14.934,0,0,1,2.5-4.628,11.677,11.677,0,0,1,3.872-3.117,11.258,11.258,0,0,1,5.1-1.133,11.41,11.41,0,0,1,7.321,2.22,18.055,18.055,0,0,1,4.674,5.81l18.229-10.674A36.178,36.178,0,0,0,214.066,27a29.828,29.828,0,0,0-6.609-5.432,32.959,32.959,0,0,0-8.313-3.541,37.411,37.411,0,0,0-10.058-1.275,36.456,36.456,0,0,0-13.791,2.6A34.451,34.451,0,0,0,164.1,26.578a33.193,33.193,0,0,0-7.462,10.957,34.635,34.635,0,0,0-2.693,13.7v.188A34.281,34.281,0,0,0,156.737,65.4a33.238,33.238,0,0,0,18.417,17.851A35.158,35.158,0,0,0,188.236,85.7a39.322,39.322,0,0,0,11-1.416m-105.073,0h56.859V66.153H115.888v-7.18h29.62V43.014h-29.62V36.307h34.664V18.173H94.166Zm-47.885,0h22.1V36.875H87.837v-18.7H26.826v18.7H46.281Z" transform="translate(-10.83 -15.54)" fill="#ddd2b9"/>
    </g>
    <g id="Group_2-2" data-name="Group 2" transform="translate(532.923 0.221)">
      <g transform="matrix(1, 0, 0, 1, -548.92, -1.22)" filter="url(#Path_3-2)">
        <path id="Path_3-4" data-name="Path 3" d="M298.319,21.868a34.689,34.689,0,1,0,15.907,22.886l-5.99,1.172a28.585,28.585,0,1,1-13.109-18.863Z" transform="translate(303.42 -15.54)" fill="#ddd2b9"/>
      </g>
      <g transform="matrix(1, 0, 0, 1, -548.92, -1.22)" filter="url(#Rectangle_8-2)">
        <rect id="Rectangle_8-4" data-name="Rectangle 8" width="32.094" height="6.196" transform="matrix(0.82, -0.57, 0.57, 0.82, 583.4, 32.27)" fill="#ddd2b9"/>
      </g>
    </g>
  </g>
</svg>
