<svg xmlns="http://www.w3.org/2000/svg" xmlns:xlink="http://www.w3.org/1999/xlink" width="104.977" height="99.791" viewBox="0 0 104.977 99.791">
  <defs>
    <filter id="Path_18" x="0" y="10" width="94.977" height="89.791" filterUnits="userSpaceOnUse">
      <feOffset dy="5" input="SourceAlpha"/>
      <feGaussianBlur stdDeviation="2" result="blur"/>
      <feFlood flood-opacity="0.161"/>
      <feComposite operator="in" in2="blur"/>
      <feComposite in="SourceGraphic"/>
    </filter>
    <filter id="Path_4" x="10" y="0" width="94.977" height="89.791" filterUnits="userSpaceOnUse">
      <feOffset dy="5" input="SourceAlpha"/>
      <feGaussianBlur stdDeviation="2" result="blur-2"/>
      <feFlood flood-opacity="0.161"/>
      <feComposite operator="in" in2="blur-2"/>
      <feComposite in="SourceGraphic"/>
    </filter>
  </defs>
  <g id="sunrise_outline" transform="translate(16 1)">
    <g transform="matrix(1, 0, 0, 1, -16, -1)" filter="url(#Path_18)">
      <path id="Path_18-2" data-name="Path 18" d="M41.489,1.2A3.112,3.112,0,0,1,44.6,4.312v6.223a3.112,3.112,0,1,1-6.223,0V4.312A3.112,3.112,0,0,1,41.489,1.2ZM12.152,13.352a3.112,3.112,0,0,1,4.4,0l4.4,4.4a3.112,3.112,0,1,1-4.4,4.4l-4.4-4.4A3.112,3.112,0,0,1,12.152,13.352Zm58.674,0a3.112,3.112,0,0,1,0,4.4l-4.4,4.4a3.112,3.112,0,1,1-4.4-4.4l4.4-4.4A3.112,3.112,0,0,1,70.826,13.352ZM41.489,27.13A15.558,15.558,0,0,0,25.93,42.689a3.112,3.112,0,1,1-6.223,0,21.781,21.781,0,0,1,43.563,0,3.112,3.112,0,0,1-6.223,0A15.558,15.558,0,0,0,41.489,27.13ZM70.531,42.689a3.112,3.112,0,0,1,3.112-3.112h6.223a3.112,3.112,0,1,1,0,6.223H73.642A3.112,3.112,0,0,1,70.531,42.689ZM0,42.689a3.112,3.112,0,0,1,3.112-3.112H9.335a3.112,3.112,0,1,1,0,6.223H3.112A3.112,3.112,0,0,1,0,42.689Zm9.335,16.6a3.112,3.112,0,0,1,3.112-3.112H70.531a3.112,3.112,0,1,1,0,6.223H12.447A3.112,3.112,0,0,1,9.335,59.284Zm12.447,16.6a3.112,3.112,0,0,1,3.112-3.112H58.084a3.112,3.112,0,1,1,0,6.223H24.893A3.112,3.112,0,0,1,21.781,75.879Z" transform="translate(6 9.8)" fill="#3e3d41" fill-rule="evenodd"/>
    </g>
    <g transform="matrix(1, 0, 0, 1, -16, -1)" filter="url(#Path_4)">
      <path id="Path_4-2" data-name="Path 4" d="M41.489,1.2A3.112,3.112,0,0,1,44.6,4.312v6.223a3.112,3.112,0,1,1-6.223,0V4.312A3.112,3.112,0,0,1,41.489,1.2ZM12.152,13.352a3.112,3.112,0,0,1,4.4,0l4.4,4.4a3.112,3.112,0,1,1-4.4,4.4l-4.4-4.4A3.112,3.112,0,0,1,12.152,13.352Zm58.674,0a3.112,3.112,0,0,1,0,4.4l-4.4,4.4a3.112,3.112,0,1,1-4.4-4.4l4.4-4.4A3.112,3.112,0,0,1,70.826,13.352ZM41.489,27.13A15.558,15.558,0,0,0,25.93,42.689a3.112,3.112,0,1,1-6.223,0,21.781,21.781,0,0,1,43.563,0,3.112,3.112,0,0,1-6.223,0A15.558,15.558,0,0,0,41.489,27.13ZM70.531,42.689a3.112,3.112,0,0,1,3.112-3.112h6.223a3.112,3.112,0,1,1,0,6.223H73.642A3.112,3.112,0,0,1,70.531,42.689ZM0,42.689a3.112,3.112,0,0,1,3.112-3.112H9.335a3.112,3.112,0,1,1,0,6.223H3.112A3.112,3.112,0,0,1,0,42.689Zm9.335,16.6a3.112,3.112,0,0,1,3.112-3.112H70.531a3.112,3.112,0,1,1,0,6.223H12.447A3.112,3.112,0,0,1,9.335,59.284Zm12.447,16.6a3.112,3.112,0,0,1,3.112-3.112H58.084a3.112,3.112,0,1,1,0,6.223H24.893A3.112,3.112,0,0,1,21.781,75.879Z" transform="translate(16 -0.2)" fill="#ddd2b9" fill-rule="evenodd"/>
    </g>
  </g>
</svg>
